<?xml version="1.0" standalone="no"?>
<!DOCTYPE svg PUBLIC "-//W3C//DTD SVG 20010904//EN"
 "http://www.w3.org/TR/2001/REC-SVG-20010904/DTD/svg10.dtd">
<svg version="1.0" xmlns="http://www.w3.org/2000/svg"
 width="2000.000000pt" height="2000.000000pt" viewBox="0 0 2000.000000 2000.000000"
 preserveAspectRatio="xMidYMid meet">
<metadata>
Created by potrace 1.14, written by Peter Selinger 2001-2017
</metadata>
<g transform="translate(0.000000,2000.000000) scale(0.100000,-0.100000)"
fill="#000000" stroke="none">
<path d="M6617 19986 c-3 -7 -28 -19 -56 -26 -33 -8 -66 -25 -95 -51 -55 -49
-136 -155 -136 -178 0 -10 -8 -28 -19 -39 -16 -19 -19 -47 -24 -229 -3 -115
-4 -2019 -2 -4233 1 -2214 1 -4040 -2 -4057 -7 -44 -21 -42 -118 12 -44 25
-99 54 -121 64 -23 11 -45 24 -48 30 -4 6 -14 11 -23 11 -9 0 -24 6 -32 13 -9
8 -36 21 -61 29 -25 9 -70 26 -100 38 -30 12 -73 27 -96 34 -23 6 -47 16 -55
22 -8 7 -38 15 -68 19 -30 4 -68 13 -85 20 -17 7 -60 16 -96 20 -35 4 -74 13
-85 20 -11 7 -72 15 -140 19 -66 3 -167 13 -225 22 -127 19 -417 14 -520 -10
-36 -8 -93 -15 -127 -16 -35 0 -80 -6 -100 -14 -21 -8 -56 -17 -78 -21 -22 -4
-44 -10 -50 -15 -5 -4 -46 -15 -90 -24 -44 -9 -100 -21 -125 -27 -93 -23 -381
-124 -435 -152 -16 -9 -64 -33 -105 -53 -102 -50 -271 -147 -353 -203 -38 -25
-81 -53 -97 -62 -98 -55 -430 -364 -563 -524 -32 -38 -66 -79 -75 -90 -24 -29
-134 -193 -164 -245 -24 -41 -81 -155 -151 -300 -15 -30 -27 -63 -27 -71 0 -9
-7 -22 -15 -29 -8 -7 -15 -24 -15 -39 0 -14 -9 -46 -20 -70 -11 -24 -20 -51
-20 -60 -1 -9 -8 -34 -16 -56 -8 -22 -19 -78 -25 -125 -5 -47 -16 -107 -24
-134 -21 -70 -21 -478 0 -558 8 -31 19 -87 25 -124 6 -37 17 -76 25 -88 8 -11
15 -36 15 -56 0 -19 7 -44 15 -54 8 -11 15 -27 15 -35 0 -9 11 -38 25 -66 13
-27 25 -57 25 -66 0 -9 6 -22 14 -28 8 -7 17 -28 21 -48 6 -36 37 -88 152
-262 69 -104 297 -359 363 -406 23 -16 50 -37 59 -45 9 -8 35 -28 56 -44 22
-16 54 -42 70 -57 17 -15 62 -44 100 -64 39 -20 81 -43 95 -51 134 -73 219
-116 254 -125 22 -6 46 -15 51 -19 6 -5 29 -13 50 -19 22 -5 76 -23 119 -40
44 -17 100 -33 125 -37 25 -4 62 -12 81 -19 19 -8 66 -16 104 -20 38 -3 78
-11 90 -18 12 -6 88 -14 171 -18 83 -4 203 -10 268 -15 124 -8 435 8 517 27
25 6 72 15 105 21 33 5 72 16 86 23 14 8 54 17 90 21 35 3 71 12 79 19 8 7 38
15 65 18 82 9 346 103 485 171 145 72 164 82 320 169 71 40 228 147 305 209
147 117 183 150 301 271 112 115 164 176 275 324 20 26 67 102 104 168 38 66
81 139 97 162 15 23 28 46 28 52 0 6 20 57 45 113 25 56 45 110 45 120 0 9 7
24 15 32 9 9 20 40 25 70 5 30 14 64 20 76 6 11 13 50 17 88 3 37 13 78 21 92
13 20 18 73 24 259 4 128 9 2169 11 4535 2 4295 2 4301 22 4298 11 -2 45 -29
75 -61 172 -182 222 -231 285 -285 39 -33 116 -104 171 -157 56 -54 115 -106
131 -116 36 -22 114 -82 198 -150 35 -29 66 -53 69 -53 3 0 27 -15 53 -33 27
-19 55 -37 63 -40 8 -4 33 -18 55 -32 22 -14 54 -32 71 -39 17 -8 36 -22 44
-30 7 -9 17 -16 22 -16 11 0 124 -64 230 -131 42 -27 89 -54 104 -60 77 -29
289 -218 396 -354 81 -102 207 -361 224 -460 4 -22 13 -52 20 -67 8 -15 14
-46 14 -70 0 -24 7 -88 16 -143 10 -67 18 -223 23 -472 6 -312 10 -375 23
-390 8 -10 29 -44 47 -75 56 -100 177 -187 281 -203 133 -20 254 -2 335 49 97
62 131 99 190 211 25 46 43 231 47 465 3 147 -18 515 -33 595 -5 28 -14 79
-20 115 -6 36 -15 79 -21 95 -6 17 -15 53 -20 80 -6 28 -19 74 -29 103 -10 30
-19 65 -19 80 0 14 -6 33 -13 41 -8 9 -28 54 -46 101 -18 47 -43 103 -56 125
-12 22 -26 51 -30 65 -4 14 -23 50 -43 80 -20 30 -45 71 -57 90 -44 71 -75
116 -104 148 -17 18 -34 39 -39 48 -27 49 -203 229 -305 312 -121 100 -273
211 -317 234 -14 7 -40 23 -59 35 -18 12 -56 34 -85 49 -28 14 -64 33 -81 43
-16 9 -61 34 -100 56 -63 34 -94 54 -187 117 -15 10 -30 18 -33 18 -10 0 -115
78 -236 175 -133 106 -220 187 -380 350 -225 229 -244 250 -275 291 -16 21
-46 56 -67 79 -20 22 -63 73 -95 114 -31 40 -100 126 -152 190 -110 133 -280
359 -280 371 0 8 -17 29 -67 87 -13 14 -23 32 -23 39 0 7 -39 49 -87 93 -69
64 -96 83 -127 88 -21 3 -47 14 -58 25 -15 15 -34 18 -132 18 -88 0 -115 -3
-119 -14z m-1542 -9378 c22 -9 67 -19 100 -22 58 -6 158 -34 222 -62 17 -8 38
-14 47 -14 27 0 278 -132 341 -180 33 -25 72 -52 86 -62 46 -29 160 -152 196
-210 20 -32 39 -58 43 -58 10 0 77 -147 112 -245 15 -44 28 -99 28 -123 0 -24
7 -72 16 -106 10 -37 14 -79 10 -106 -3 -25 -11 -97 -19 -161 -7 -67 -19 -124
-27 -134 -7 -9 -17 -40 -21 -68 -4 -29 -22 -83 -42 -122 -66 -134 -92 -180
-104 -193 -7 -7 -13 -20 -13 -27 0 -7 -7 -21 -16 -30 -9 -9 -52 -62 -96 -118
-114 -147 -125 -159 -208 -226 -41 -34 -94 -77 -116 -97 -47 -41 -151 -114
-161 -114 -7 0 -41 -21 -128 -80 -48 -32 -165 -90 -182 -90 -7 0 -45 -16 -86
-35 -41 -19 -78 -35 -83 -35 -5 -1 -27 -9 -49 -20 -22 -11 -53 -19 -68 -20
-15 0 -41 -7 -58 -15 -16 -9 -60 -19 -98 -24 -37 -5 -79 -15 -92 -22 -13 -7
-71 -16 -129 -20 -58 -5 -136 -13 -175 -18 -106 -15 -301 -13 -370 4 -33 8
-83 14 -112 15 -28 0 -80 9 -115 20 -34 11 -72 20 -83 20 -12 0 -37 8 -58 19
-20 10 -54 22 -74 26 -21 4 -49 13 -63 20 -14 7 -63 32 -110 55 -77 39 -118
64 -220 136 -99 69 -268 248 -287 303 -3 9 -14 25 -24 36 -24 27 -75 150 -107
260 -25 86 -27 100 -26 310 1 182 4 226 17 252 9 17 19 50 23 74 4 24 15 60
26 79 10 19 18 40 18 47 0 6 25 54 55 107 30 52 59 106 64 118 11 26 202 266
253 316 48 48 225 193 284 233 146 98 345 210 407 228 18 5 70 25 117 45 46
20 89 36 95 36 5 0 22 6 36 14 14 7 53 17 85 21 32 4 77 13 99 20 43 15 267
52 350 59 28 2 140 3 250 1 155 -1 209 -5 240 -17z"/>
<path d="M17745 16010 c-22 -4 -71 -20 -110 -34 -38 -15 -84 -31 -101 -37 -18
-5 -37 -16 -44 -24 -7 -8 -19 -15 -28 -15 -9 0 -46 -16 -83 -35 -38 -19 -106
-50 -151 -69 -46 -19 -135 -57 -199 -85 -64 -28 -121 -51 -127 -51 -5 0 -15
-6 -21 -14 -7 -8 -27 -18 -44 -22 -18 -3 -36 -10 -42 -14 -12 -9 -216 -99
-290 -128 -27 -11 -102 -44 -165 -75 -63 -30 -140 -64 -170 -77 -57 -23 -88
-37 -200 -88 -36 -17 -139 -63 -230 -102 -91 -40 -198 -88 -238 -106 -40 -19
-77 -34 -81 -34 -5 0 -40 -15 -77 -34 -38 -18 -121 -55 -184 -81 -63 -26 -152
-65 -197 -86 -44 -22 -85 -39 -91 -39 -5 0 -39 -16 -76 -35 -37 -19 -74 -35
-81 -35 -7 0 -20 -6 -28 -14 -7 -8 -29 -19 -48 -24 -29 -8 -199 -82 -354 -152
-130 -59 -179 -80 -191 -80 -8 0 -22 -9 -31 -20 -10 -11 -24 -20 -33 -20 -9 0
-34 -9 -55 -21 -22 -11 -56 -26 -75 -34 -67 -26 -196 -82 -293 -129 -54 -26
-111 -49 -127 -53 -16 -3 -37 -14 -46 -24 -9 -11 -29 -19 -44 -19 -15 0 -33
-7 -40 -15 -7 -8 -18 -15 -25 -15 -6 0 -33 -11 -59 -25 -26 -14 -54 -25 -62
-25 -9 0 -27 -9 -41 -20 -14 -11 -33 -20 -43 -20 -9 0 -43 -14 -76 -31 -32
-16 -88 -41 -124 -55 -36 -14 -85 -34 -110 -46 -25 -11 -63 -29 -85 -38 -76
-33 -110 -48 -176 -79 -36 -17 -70 -31 -75 -31 -9 0 -212 -93 -286 -131 -20
-10 -42 -19 -48 -19 -5 0 -62 -25 -125 -55 -64 -30 -120 -55 -124 -55 -9 0
-83 -32 -206 -90 -44 -21 -101 -48 -127 -59 -27 -12 -67 -30 -91 -41 -24 -11
-47 -20 -51 -20 -9 0 -116 -49 -187 -86 -26 -13 -56 -24 -67 -24 -12 0 -23 -4
-27 -9 -3 -5 -27 -17 -53 -27 -108 -41 -208 -127 -252 -220 -12 -24 -25 -46
-30 -49 -4 -3 -11 -22 -16 -42 -4 -21 -8 -1928 -8 -4238 l-1 -4200 -29 -3
c-17 -2 -39 4 -55 16 -15 10 -36 22 -49 26 -12 4 -22 11 -22 16 0 5 -17 14
-37 21 -21 6 -54 24 -74 38 -20 15 -67 39 -105 55 -38 15 -77 32 -88 38 -10 5
-39 16 -65 23 -25 7 -82 27 -126 44 -45 18 -114 35 -158 40 -42 5 -84 14 -91
21 -8 6 -51 15 -95 19 -45 5 -88 15 -97 22 -14 11 -94 14 -428 14 -363 0 -418
-2 -468 -17 -31 -10 -73 -18 -95 -18 -21 0 -58 -9 -82 -20 -24 -11 -62 -20
-85 -20 -23 0 -58 -9 -79 -20 -20 -11 -55 -20 -77 -20 -21 0 -61 -9 -88 -19
-26 -11 -69 -22 -95 -26 -25 -4 -52 -13 -58 -21 -6 -8 -16 -14 -23 -14 -11 0
-97 -32 -151 -55 -16 -8 -57 -26 -90 -40 -33 -14 -67 -30 -75 -36 -8 -5 -26
-14 -40 -19 -14 -6 -32 -14 -40 -20 -18 -12 -117 -67 -169 -94 -19 -10 -40
-24 -46 -30 -5 -7 -41 -31 -80 -55 -81 -48 -176 -115 -190 -134 -5 -7 -41 -38
-80 -69 -150 -121 -384 -368 -471 -498 -17 -25 -46 -67 -65 -95 -44 -62 -169
-281 -169 -294 0 -6 -15 -39 -34 -73 -19 -35 -53 -121 -76 -193 -23 -71 -48
-150 -57 -175 -8 -25 -19 -72 -23 -105 -5 -33 -16 -99 -25 -148 -22 -120 -17
-479 8 -582 9 -38 17 -82 17 -97 0 -15 9 -50 20 -78 11 -28 20 -61 20 -73 0
-12 18 -65 41 -117 89 -210 126 -284 181 -368 26 -41 48 -77 48 -82 0 -4 7
-13 16 -21 8 -7 24 -29 34 -49 21 -41 273 -301 335 -346 22 -15 65 -49 95 -75
79 -66 212 -150 309 -195 18 -8 52 -27 74 -41 22 -14 84 -41 136 -59 53 -18
128 -45 166 -59 77 -29 154 -51 230 -67 28 -6 75 -17 105 -25 30 -8 107 -19
170 -23 151 -12 200 -19 200 -31 0 -14 547 -12 552 2 5 14 82 28 158 28 31 1
81 10 113 21 31 11 68 20 82 20 15 0 35 5 46 10 10 6 45 15 76 21 65 11 208
47 238 60 11 5 65 25 120 45 170 61 180 65 188 80 4 8 16 14 27 14 21 0 264
121 290 145 9 8 20 15 25 15 5 0 47 26 94 57 140 92 157 103 163 103 4 0 31
24 62 52 30 29 86 77 125 107 115 87 383 375 449 481 8 14 34 54 57 90 84 129
201 348 230 430 26 70 51 139 80 215 14 39 30 97 35 130 5 33 17 89 26 125 16
61 18 318 21 4207 l4 4143 48 14 c27 8 57 19 67 24 30 16 110 52 116 52 3 0
48 20 99 44 52 23 121 54 154 67 33 13 81 36 108 51 26 15 60 31 75 35 15 3
41 15 57 25 17 10 38 18 48 18 11 0 30 9 44 20 14 11 31 20 38 20 7 0 65 25
128 55 63 30 118 55 121 55 9 0 202 84 242 105 16 8 36 15 45 15 9 0 24 9 34
20 10 11 25 20 33 20 8 0 33 8 56 19 23 10 68 31 100 46 33 15 107 47 165 70
59 24 135 57 171 74 36 17 70 31 76 31 6 0 17 6 23 14 7 8 24 17 39 20 15 4
41 13 57 20 17 8 57 26 90 41 33 15 80 38 105 50 25 13 106 49 180 80 132 55
159 67 230 98 19 8 58 25 85 37 28 12 86 39 130 60 44 21 125 57 180 81 55 23
158 69 228 101 71 32 133 58 138 58 5 0 26 9 46 20 21 11 43 20 49 20 6 0 17
7 24 15 7 8 20 15 29 15 17 0 160 61 391 169 130 60 157 71 173 71 8 0 20 7
27 15 7 8 26 19 44 24 36 10 264 111 412 182 56 26 113 51 127 54 15 4 31 13
38 21 6 8 20 14 31 14 11 0 37 8 57 18 20 10 56 28 81 39 25 11 63 30 85 40
22 11 58 26 80 33 22 7 84 35 138 61 54 27 106 49 116 49 9 0 22 5 28 11 24
24 148 67 161 57 9 -8 12 -609 12 -2943 0 -3169 4 -2966 -51 -2927 -85 62
-352 194 -468 232 -51 17 -105 37 -120 44 -14 7 -46 16 -70 20 -24 4 -56 13
-72 21 -15 8 -50 15 -76 15 -26 1 -66 8 -88 16 -22 8 -92 19 -155 24 -63 6
-140 15 -170 22 -35 8 -142 12 -300 12 -199 0 -256 -3 -305 -17 -32 -9 -83
-17 -112 -17 -30 0 -79 -9 -110 -20 -32 -11 -70 -20 -85 -20 -15 0 -50 -9 -78
-20 -28 -11 -67 -20 -88 -20 -20 -1 -55 -9 -77 -20 -22 -11 -53 -20 -70 -20
-16 0 -50 -9 -74 -20 -24 -11 -51 -20 -62 -20 -10 0 -21 -4 -24 -10 -3 -5 -27
-16 -53 -24 -184 -55 -537 -247 -758 -413 -230 -171 -490 -435 -635 -643 -29
-41 -56 -77 -61 -78 -5 -2 -15 -18 -23 -35 -8 -18 -35 -68 -60 -112 -85 -151
-148 -295 -195 -445 -18 -58 -37 -110 -42 -117 -5 -6 -12 -38 -14 -70 -3 -32
-13 -76 -22 -98 -15 -34 -17 -84 -17 -385 0 -310 2 -348 18 -377 9 -18 17 -43
17 -56 0 -24 41 -161 59 -194 5 -10 21 -52 37 -93 15 -41 36 -95 46 -119 10
-24 18 -48 18 -53 0 -5 9 -21 19 -36 11 -15 62 -92 114 -172 76 -116 120 -171
224 -275 73 -75 179 -169 248 -220 66 -50 122 -93 125 -96 11 -13 298 -167
332 -178 21 -7 40 -17 43 -22 4 -5 16 -9 28 -9 12 0 39 -9 60 -20 20 -11 44
-20 53 -20 8 0 39 -11 67 -25 29 -13 84 -32 122 -41 39 -9 104 -25 146 -35 42
-10 96 -19 120 -19 24 -1 62 -8 84 -16 57 -22 465 -36 705 -24 150 8 209 16
310 40 69 17 148 35 176 39 28 5 61 14 72 20 12 6 56 16 97 21 42 5 86 16 98
25 12 8 28 15 37 15 14 0 93 28 155 55 17 8 47 19 67 25 20 6 42 18 48 26 7 7
18 14 25 14 7 0 55 21 106 46 52 25 108 52 124 60 17 8 37 19 45 24 8 5 44 26
80 47 36 20 83 49 105 63 22 15 66 44 99 65 32 21 93 67 135 104 42 36 96 83
121 102 70 57 217 207 303 310 42 52 83 101 90 109 26 29 125 186 162 255 21
39 57 104 80 145 24 41 48 92 55 112 6 21 16 40 21 43 5 4 9 16 9 27 0 11 8
39 19 62 26 58 51 133 65 191 6 28 15 56 20 64 5 7 12 48 17 91 4 43 15 99 23
124 15 42 16 533 16 5233 l0 5186 -26 66 c-34 84 -81 157 -127 198 -100 88
-266 137 -382 113z m-406 -1194 c8 -9 11 -112 9 -356 l-3 -343 -50 -28 c-27
-15 -59 -28 -71 -28 -11 -1 -29 -10 -39 -21 -10 -11 -26 -20 -36 -20 -10 0
-64 -23 -121 -51 -57 -27 -134 -63 -173 -78 -38 -16 -104 -45 -146 -64 -41
-20 -87 -39 -102 -42 -14 -4 -31 -13 -38 -21 -6 -8 -17 -14 -24 -14 -11 0 -58
-19 -165 -68 -19 -8 -48 -21 -65 -28 -163 -70 -358 -157 -381 -169 -16 -8 -34
-15 -40 -15 -6 0 -17 -7 -24 -15 -7 -8 -19 -15 -27 -15 -8 0 -40 -12 -71 -26
-31 -14 -72 -32 -89 -40 -18 -8 -48 -20 -65 -28 -18 -8 -82 -36 -143 -62 -60
-25 -141 -61 -180 -79 -73 -34 -135 -62 -207 -93 -65 -28 -92 -41 -108 -51
-20 -13 -226 -101 -234 -101 -9 0 -83 -33 -169 -76 -37 -19 -76 -34 -86 -34
-10 0 -24 -6 -30 -14 -6 -7 -25 -16 -42 -20 -17 -3 -42 -15 -56 -26 -14 -11
-31 -20 -38 -20 -7 0 -59 -22 -116 -49 -57 -27 -124 -56 -149 -64 -25 -8 -94
-38 -154 -66 -59 -28 -114 -51 -121 -51 -7 0 -24 -9 -38 -20 -14 -11 -33 -20
-42 -20 -9 0 -33 -9 -53 -19 -64 -34 -185 -88 -257 -117 -38 -15 -106 -44
-150 -65 -44 -22 -85 -39 -91 -39 -6 0 -17 -7 -24 -15 -7 -8 -21 -15 -32 -15
-10 0 -36 -9 -56 -19 -69 -35 -250 -121 -256 -121 -5 0 -210 -88 -291 -125
-16 -8 -52 -23 -80 -35 -27 -12 -63 -28 -80 -35 -89 -40 -149 -67 -235 -105
-52 -23 -113 -50 -136 -61 -22 -10 -46 -19 -54 -19 -7 0 -21 -6 -29 -14 -29
-26 -143 -68 -167 -62 l-23 6 -3 328 c-2 180 0 337 4 350 7 21 85 64 229 126
24 10 80 36 124 57 45 22 89 39 99 39 10 0 29 9 43 20 14 11 31 20 38 20 7 0
48 16 91 36 112 50 120 54 304 134 91 39 172 75 180 81 8 5 23 12 33 15 9 4
70 31 135 61 64 30 145 65 180 79 34 13 100 42 147 64 46 22 93 40 104 40 11
0 23 4 26 10 6 9 52 32 165 82 25 11 82 37 127 59 45 21 85 39 89 39 7 0 77
30 254 107 19 9 49 21 65 28 58 25 219 98 320 145 33 16 112 49 175 75 63 26
126 52 140 59 14 7 45 22 70 33 25 12 66 30 91 42 25 12 52 21 59 21 8 0 21 6
29 14 9 7 50 27 91 44 41 17 103 45 138 61 34 17 65 31 69 31 4 0 25 9 47 19
23 11 68 31 101 46 33 14 72 33 87 41 14 8 35 14 45 14 11 0 28 8 37 19 9 10
29 21 45 24 15 3 79 31 141 61 63 31 121 56 129 56 8 0 65 24 126 54 61 30
125 58 141 62 16 4 40 15 53 26 13 10 29 18 37 18 7 0 25 7 41 15 15 8 78 35
138 61 96 40 274 117 400 174 22 10 60 27 85 38 25 11 70 31 100 45 72 35 253
115 261 116 4 1 12 -5 18 -13z m-1190 -8151 c23 -8 72 -18 109 -21 37 -4 79
-13 93 -20 15 -7 46 -16 70 -20 24 -4 60 -15 79 -26 19 -10 42 -18 51 -18 30
0 292 -142 324 -176 6 -5 28 -22 50 -36 51 -33 179 -159 213 -211 15 -22 39
-58 54 -81 47 -70 105 -199 117 -260 5 -23 16 -70 26 -105 23 -87 19 -419 -6
-466 -9 -16 -20 -52 -24 -80 -4 -27 -13 -58 -21 -69 -8 -11 -14 -29 -14 -39 0
-10 -9 -30 -20 -44 -11 -14 -20 -33 -21 -42 0 -9 -12 -37 -27 -62 -15 -26 -39
-67 -53 -91 -27 -47 -217 -284 -272 -341 -90 -92 -289 -247 -355 -277 -13 -5
-57 -32 -99 -60 -42 -27 -78 -50 -81 -50 -3 0 -28 -11 -56 -24 -155 -73 -293
-126 -361 -141 -33 -7 -71 -17 -85 -22 -14 -6 -47 -13 -75 -17 -27 -4 -72 -13
-100 -21 -46 -13 -229 -31 -420 -42 -44 -3 -120 1 -170 7 -49 6 -124 15 -165
19 -42 4 -81 10 -88 15 -6 4 -40 12 -74 17 -34 6 -67 14 -73 18 -5 5 -41 18
-78 30 -38 12 -96 35 -130 50 -34 16 -69 31 -77 35 -34 14 -152 83 -158 92 -4
6 -29 25 -56 44 -165 112 -335 339 -388 520 -5 19 -14 40 -19 46 -4 5 -13 49
-18 97 -6 48 -15 97 -22 109 -16 30 -14 113 5 222 9 49 16 106 16 128 0 21 9
56 19 76 10 20 29 71 42 112 21 66 45 115 149 293 36 63 90 133 154 202 31 33
56 63 56 66 0 4 37 38 83 77 45 39 96 83 114 99 63 55 114 90 233 159 44 25
82 49 85 54 9 15 215 108 290 131 17 5 44 15 60 23 46 22 124 46 185 57 30 6
67 17 82 25 14 7 41 14 60 14 18 0 62 9 98 19 57 17 100 20 356 20 233 1 300
-2 333 -14z m-6777 -2855 c13 -5 79 -14 148 -19 69 -5 142 -17 162 -25 21 -9
53 -16 73 -16 20 0 50 -8 68 -17 18 -9 48 -20 67 -24 142 -31 395 -178 526
-304 82 -79 204 -231 204 -254 0 -4 9 -16 20 -26 11 -10 20 -25 20 -34 0 -9 7
-29 15 -45 55 -104 100 -338 92 -466 -10 -137 -28 -263 -43 -291 -8 -16 -14
-36 -14 -46 0 -10 -9 -35 -20 -56 -11 -20 -20 -42 -20 -48 0 -12 -51 -116 -85
-174 -13 -22 -27 -46 -31 -54 -9 -18 -91 -127 -147 -196 -22 -27 -86 -94 -141
-149 -129 -126 -219 -196 -355 -276 -41 -23 -88 -52 -105 -64 -61 -41 -226
-115 -376 -168 -30 -11 -59 -23 -65 -28 -5 -4 -37 -10 -70 -13 -34 -4 -77 -13
-98 -22 -20 -8 -49 -15 -64 -15 -15 0 -62 -10 -103 -21 -68 -19 -104 -21 -381
-21 -258 0 -311 2 -336 16 -17 8 -61 18 -99 22 -38 4 -80 12 -94 19 -14 7 -52
20 -85 30 -52 15 -128 44 -200 76 -47 21 -153 83 -185 108 -19 16 -48 35 -65
43 -37 19 -179 163 -235 238 -55 73 -104 158 -120 206 -7 21 -19 48 -26 59 -7
11 -16 40 -20 65 -4 25 -13 54 -19 65 -31 50 -24 445 10 540 10 28 24 64 31
80 7 17 16 46 20 65 3 19 31 79 60 133 30 53 54 101 54 105 0 13 81 121 193
256 62 76 308 295 367 327 19 11 67 40 105 64 39 24 79 49 90 54 12 5 27 16
34 25 7 9 20 16 27 16 7 0 37 11 66 25 29 13 84 36 123 51 83 32 131 52 167
70 14 8 40 14 57 14 16 0 53 9 81 20 28 11 64 20 81 20 16 0 46 7 67 17 22 9
85 19 157 25 66 4 147 12 180 17 86 12 210 13 237 1z"/>
</g>
</svg>
